<?xml version="1.0" encoding="UTF-8"?>
<svg version="1.1" viewBox="0 0 2048 434" width="1280" height="1280" xmlns="http://www.w3.org/2000/svg">
<path transform="translate(1289)" d="m0 0h61l36 9 21 8 22 11 18 12 14 11 13 12 7 7 9 11 11 15 10 17 11 23 7 21 5 22 2 18v40l-2 17-6 25-7 20-12 25-12 19-14 17-11 12-12 11-16 12-18 11-16 8-14 6-26 8-27 6h-46l-32-7-17-5-24-10-15-8-18-12-11-9-10-9-15-15-11-14-7-10-9-15-11-23-7-21-5-22-3-20v-35l5-31 7-24 8-19 11-21 8-12 9-12 10-11 7-8 12-11 17-13 18-11 16-8 15-6 22-7z" fill="#020101"/>
<path transform="translate(1323,8)" d="m0 0 28 1 19 3 14 4 12 5 1 2-11-2-25-4-24-1-21 2-22 5-15 5-16 8-11 7-10 8-10 9-10 12-12 19-9 19-7 16-4 2-2 13v28l6 16 9 15 1 3v9l-3 12-7 35-6 27v13l6 14 4 4h6l3-4v-9l6-3-1-9-4-6-4 1-1 2h-2l-1-4 4-4 10 2 4-4 8-14 2-1-1 7-5 11v5l4 3 4 1 4-19 5-24 8-19 6-17 5-5h6l1 1v10l-3 22v10l1 3-7 14 4 4-4 6-11 12-3 7 6-3 9-11 8-12 5-4 7 1 10 7 10 9 9 13 8 16 6 16 6 25 5 21v4l17-5 19-9 18-11 13-10 10-9 6-5 13-17 8-13 8-16 6-18 4-19 1-8v-29l-2-9-6-8-8-8-16-12-18-10-21-10-19-7-22-6-10-2h-5l-6 15-7 9-3 3-2-1 10-15 5-10 8-31v-4l-4 1-10 8-9 8-12 6-3 1h-7l2-6 10-14 9-9 13-9 13-6 15-3h15l15 3 16 6 16 9 14 11 9 9 10 13 9 16 7 19 5 24 1 11v26l-2 18-5 23-8 22-9 17-11 16-11 12-9 9-17 13-17 10-17 8-27 9-19 4-8 1h-21l-19-3-20-6-23-11-17-12-13-12-9-9-9-11-10-14-10-18-7-15-7-21-5-23v-38l5-32 7-24 8-20 10-19 10-14 8-10 9-10 12-12 17-13 15-9 16-8 24-9 19-5 14-2z" fill="#F1811C"/>
<path transform="translate(754,99)" d="m0 0 4 1-14 51-24 86-20 71-5 16-1 2 4-4 12-22 10-17 30-52 14-24 15-26 14-24 16-28 10-18 6-10 1-1h58l-4 16-19 68-18 64-13 47-9 32-2 3h-40l1-6 19-66 1-4-31 1-8 13-16 28-13 22-7 11-1 1h-72l3-10 18-62 1-4-31 1-6 9-10 18-13 22-15 25-1 1h-30l2-6 13-22 16-28 14-24 60-104 16-28 10-17 1-1zm-53 51-13 22-14 24-16 27 2 2h20l3-3 16-57 3-11zm126 0-14 24-15 26-13 22 1 3 22-1 5-16 16-57z" fill="#010101"/>
<path transform="translate(1280,8)" d="m0 0h6l-4 2-19 5-17 6-19 9-16 10-13 11-8 7-12 12-11 14-11 18-8 15-9 24-6 21-4 20-2 15-1 14v11l3 25 6 23 10 25 8 16 8 14 10 14 8 10 16 16 10 8 15 10 17 9 16 6 23 5 8 1h32l25-4 23-6 15-6 19-9 19-12 17-14 10-9 9-11 10-13 9-16 6-12 6-16 6-24 3-22v-29l-3-26-5-23-6-18-8-16-8-13-7-9-10-11-14-11-15-9-19-8-19-5-12-2h-27l-19 4-16 6-14 8-14 11-13 13-13 17-7 10-4 2 1-7 8-13 11-14 12-12 14-11 13-8 17-8 19-5 20-2 20 1 15 3 18 6 20 10 13 9 13 11 9 9 11 14 9 14 9 17 7 19 6 25 2 15 1 14v19l-2 21-5 25-9 27-10 21-12 19-9 11-9 10-9 9-11 9-14 10-17 10-24 10-22 6-19 3-13 1h-19l-26-3-22-5-18-6-25-12-16-11-11-9-15-14-9-11-12-16-12-21-10-24-7-25-4-24-1-9v-30l4-25 6-24 11-28 10-19 10-15 10-13 14-15 8-8 14-11 10-7 23-12 24-9z" fill="#F1811C"/>
<path transform="translate(521,99)" d="m0 0 145 1-4 16-3 10-1 1-45 1-4 16-22 80-22 79-7 25-1 2h-45l2-9 50-174 6-19h-57l-1-4 6-19 2-5z" fill="#010101"/>
<path transform="translate(869,224)" d="m0 0h80l-1 8-22 80-5 16-1 2h-26l-1-1v-14h-2l-2 5-7 6-12 4h-39l9-34 10 3h15l12-2 9-6 7-11 5-17 2-9h-39l-1-2 6-21z" fill="#010101"/>
<path transform="translate(916,99)" d="m0 0 41 1 10 4 5 6 2 4v14l-17 61-1 1h-39l2-10 11-42v-11l-6-1h-17l-12 2-9 3 9-31z" fill="#010101"/>
<path transform="translate(1226,175)" d="m0 0h6l4 4-1 3v14l1 5v13l-3-1-1-4-4 4-3-1-2-20v-9z" fill="#F1811C"/>
<path transform="translate(1249,179)" d="m0 0h8l13 6-1 3-11 5-9-1-4-1h-4l1-5 5-5z" fill="#F1811C"/>
</svg>
